G04 #@! TF.FileFunction,Copper,L1,Top,Signal*
%FSLAX46Y46*%
G04 Gerber Fmt 4.6, Leading zero omitted, Abs format (unit mm)*
G04 Created by KiCad (PCBNEW 4.0.2+dfsg1-stable) date Thu 01 Dec 2016 16:17:54 GMT*
%MOMM*%
G01*
G04 APERTURE LIST*
%ADD10C,0.100000*%
%ADD11C,0.001000*%
%ADD12R,1.300000X1.300000*%
%ADD13C,1.300000*%
%ADD14C,1.998980*%
%ADD15R,0.300000X0.800000*%
%ADD16R,1.000000X0.200000*%
%ADD17R,0.600000X1.950000*%
%ADD18O,1.600000X2.300000*%
%ADD19R,1.727200X2.032000*%
%ADD20O,1.727200X2.032000*%
%ADD21R,2.032000X1.727200*%
%ADD22O,2.032000X1.727200*%
%ADD23C,2.286000*%
%ADD24R,2.000000X2.000000*%
%ADD25C,2.000000*%
%ADD26C,1.524000*%
%ADD27C,0.600000*%
%ADD28C,0.250000*%
G04 APERTURE END LIST*
D10*
D11*
G36*
X133670000Y-72690000D02*
X133670000Y-71790000D01*
X135570000Y-71790000D01*
X135570000Y-72990000D01*
X133970000Y-72990000D01*
X133670000Y-72690000D01*
G37*
X133670000Y-72690000D02*
X133670000Y-71790000D01*
X135570000Y-71790000D01*
X135570000Y-72990000D01*
X133970000Y-72990000D01*
X133670000Y-72690000D01*
D12*
X142494000Y-72085200D03*
D13*
X142494000Y-74585200D03*
D12*
X175234600Y-82067400D03*
D13*
X177734600Y-82067400D03*
D12*
X169545000Y-82143600D03*
D13*
X172045000Y-82143600D03*
D12*
X165354000Y-81203800D03*
D13*
X165354000Y-83703800D03*
D12*
X183489600Y-82245200D03*
D13*
X180989600Y-82245200D03*
D12*
X133654800Y-77724000D03*
D13*
X136154800Y-77724000D03*
D14*
X144297400Y-86537800D03*
X134137400Y-86537800D03*
X144322800Y-83032600D03*
X134162800Y-83032600D03*
X148132800Y-82372200D03*
X158292800Y-82372200D03*
X204978000Y-84963000D03*
X194818000Y-84963000D03*
D15*
X133870000Y-73590000D03*
X134370000Y-73590000D03*
X134870000Y-73590000D03*
X135370000Y-73590000D03*
X135370000Y-71190000D03*
X134870000Y-71190000D03*
X134370000Y-71190000D03*
X133870000Y-71190000D03*
D16*
X134620000Y-72390000D03*
D17*
X146685000Y-78360000D03*
X147955000Y-78360000D03*
X149225000Y-78360000D03*
X150495000Y-78360000D03*
X151765000Y-78360000D03*
X153035000Y-78360000D03*
X154305000Y-78360000D03*
X155575000Y-78360000D03*
X156845000Y-78360000D03*
X158115000Y-78360000D03*
X158115000Y-68960000D03*
X156845000Y-68960000D03*
X155575000Y-68960000D03*
X154305000Y-68960000D03*
X153035000Y-68960000D03*
X151765000Y-68960000D03*
X150495000Y-68960000D03*
X149225000Y-68960000D03*
X147955000Y-68960000D03*
X146685000Y-68960000D03*
D18*
X167640000Y-77470000D03*
X170180000Y-77470000D03*
X172720000Y-77470000D03*
X175260000Y-77470000D03*
X177800000Y-77470000D03*
X180340000Y-77470000D03*
X182880000Y-77470000D03*
X182880000Y-69850000D03*
X180340000Y-69850000D03*
X177800000Y-69850000D03*
X175260000Y-69850000D03*
X172720000Y-69850000D03*
X170180000Y-69850000D03*
X167640000Y-69850000D03*
D19*
X172593000Y-86741000D03*
D20*
X170053000Y-86741000D03*
X167513000Y-86741000D03*
X164973000Y-86741000D03*
X162433000Y-86741000D03*
D21*
X195529200Y-73710800D03*
D22*
X195529200Y-76250800D03*
X195529200Y-78790800D03*
X195529200Y-81330800D03*
D23*
X191033400Y-83312000D03*
X191033400Y-73152000D03*
X187731400Y-78232000D03*
D24*
X150418800Y-86156800D03*
D25*
X147878800Y-86156800D03*
D26*
X202311000Y-68808600D03*
X204851000Y-68808600D03*
X199771000Y-68808600D03*
D12*
X194487800Y-88468200D03*
D13*
X196987800Y-88468200D03*
D19*
X158927800Y-86614000D03*
D20*
X156387800Y-86614000D03*
X153847800Y-86614000D03*
D27*
X142494000Y-68199000D03*
X150850600Y-80746600D03*
X154051000Y-72847200D03*
X160858200Y-78257400D03*
X149250400Y-72898000D03*
X189966600Y-67462400D03*
X193014600Y-74752200D03*
D28*
X193243200Y-75996800D02*
X193243200Y-89814400D01*
X195438400Y-90017600D02*
X196987800Y-88468200D01*
X193446400Y-90017600D02*
X195438400Y-90017600D01*
X193243200Y-89814400D02*
X193446400Y-90017600D01*
X153847800Y-86614000D02*
X153847800Y-89077800D01*
X153822400Y-89154000D02*
X153822400Y-89077800D01*
X153822400Y-89103200D02*
X153822400Y-89154000D01*
X153847800Y-89077800D02*
X153822400Y-89103200D01*
X172593000Y-86741000D02*
X172161200Y-86741000D01*
X172161200Y-86741000D02*
X169824400Y-89077800D01*
X169824400Y-89077800D02*
X153822400Y-89077800D01*
X147878800Y-87731600D02*
X147878800Y-86156800D01*
X153822400Y-89077800D02*
X149225000Y-89077800D01*
X149225000Y-89077800D02*
X147878800Y-87731600D01*
X187731400Y-78232000D02*
X191008000Y-78232000D01*
X191008000Y-78232000D02*
X193243200Y-75996800D01*
X193243200Y-75996800D02*
X195529200Y-73710800D01*
X179750400Y-83484400D02*
X185552400Y-83484400D01*
X187731400Y-81305400D02*
X187731400Y-78232000D01*
X185552400Y-83484400D02*
X187731400Y-81305400D01*
X172593000Y-86741000D02*
X176493800Y-86741000D01*
X176493800Y-86741000D02*
X179750400Y-83484400D01*
X179750400Y-83484400D02*
X180989600Y-82245200D01*
X133654800Y-77724000D02*
X133654800Y-76352400D01*
X134370000Y-75637200D02*
X134370000Y-73590000D01*
X133654800Y-76352400D02*
X134370000Y-75637200D01*
X145593800Y-67868800D02*
X146685000Y-68960000D01*
X142824200Y-67868800D02*
X145593800Y-67868800D01*
X142494000Y-68199000D02*
X142824200Y-67868800D01*
X134370000Y-71190000D02*
X134370000Y-70057200D01*
X134213600Y-69951600D02*
X134213600Y-69926200D01*
X134239000Y-69926200D02*
X134213600Y-69951600D01*
X134239000Y-69900800D02*
X134239000Y-69926200D01*
X134226300Y-69913500D02*
X134239000Y-69900800D01*
X134370000Y-70057200D02*
X134226300Y-69913500D01*
X133870000Y-71190000D02*
X133870000Y-70269800D01*
X135179800Y-68960000D02*
X146685000Y-68960000D01*
X133870000Y-70269800D02*
X134213600Y-69926200D01*
X134213600Y-69926200D02*
X135179800Y-68960000D01*
X144322800Y-83032600D02*
X144322800Y-86512400D01*
X144322800Y-86512400D02*
X144297400Y-86537800D01*
X144322800Y-83032600D02*
X144322800Y-82296000D01*
X144322800Y-82296000D02*
X146685000Y-79933800D01*
X146685000Y-79933800D02*
X146685000Y-78360000D01*
X144729200Y-74574400D02*
X142504800Y-74574400D01*
X142504800Y-74574400D02*
X142494000Y-74585200D01*
X135370000Y-71190000D02*
X135370000Y-70396800D01*
X135370000Y-70396800D02*
X135064500Y-70091300D01*
X134870000Y-70285800D02*
X134870000Y-71190000D01*
X135509000Y-69646800D02*
X135064500Y-70091300D01*
X135064500Y-70091300D02*
X134870000Y-70285800D01*
X144373600Y-69646800D02*
X135509000Y-69646800D01*
X144729200Y-70002400D02*
X144373600Y-69646800D01*
X144729200Y-74574400D02*
X144729200Y-70002400D01*
X175234600Y-82067400D02*
X175234600Y-77495400D01*
X175234600Y-77495400D02*
X175260000Y-77470000D01*
X177734600Y-82067400D02*
X177734600Y-77535400D01*
X177734600Y-77535400D02*
X177800000Y-77470000D01*
X167640000Y-77470000D02*
X167640000Y-80238600D01*
X167640000Y-80238600D02*
X169545000Y-82143600D01*
X172045000Y-82143600D02*
X172045000Y-80304000D01*
X172720000Y-79629000D02*
X172720000Y-77470000D01*
X172045000Y-80304000D02*
X172720000Y-79629000D01*
X165354000Y-81203800D02*
X165354000Y-76123800D01*
X170180000Y-75666600D02*
X170180000Y-77470000D01*
X169900600Y-75387200D02*
X170180000Y-75666600D01*
X166090600Y-75387200D02*
X169900600Y-75387200D01*
X165354000Y-76123800D02*
X166090600Y-75387200D01*
X183489600Y-82245200D02*
X183489600Y-82219800D01*
X183489600Y-82219800D02*
X180340000Y-79070200D01*
X180340000Y-79070200D02*
X180340000Y-77470000D01*
X155575000Y-68960000D02*
X155575000Y-67868800D01*
X132257800Y-69392800D02*
X132257800Y-75565000D01*
X135051800Y-66598800D02*
X132257800Y-69392800D01*
X154305000Y-66598800D02*
X135051800Y-66598800D01*
X155575000Y-67868800D02*
X154305000Y-66598800D01*
X133870000Y-73590000D02*
X133870000Y-73952800D01*
X133870000Y-73952800D02*
X132257800Y-75565000D01*
X132257800Y-75565000D02*
X132257800Y-84658200D01*
X132257800Y-84658200D02*
X134137400Y-86537800D01*
X158115000Y-68960000D02*
X158115000Y-71348600D01*
X136398000Y-75996800D02*
X135370000Y-74968800D01*
X153466800Y-75996800D02*
X136398000Y-75996800D01*
X158115000Y-71348600D02*
X153466800Y-75996800D01*
X135370000Y-73590000D02*
X135370000Y-74968800D01*
X135370000Y-74968800D02*
X135370000Y-75704000D01*
X134823200Y-76250800D02*
X134823200Y-82372200D01*
X135370000Y-75704000D02*
X134823200Y-76250800D01*
X134823200Y-82372200D02*
X134162800Y-83032600D01*
X148132800Y-82372200D02*
X153035000Y-82372200D01*
X154305000Y-81102200D02*
X154305000Y-78360000D01*
X153035000Y-82372200D02*
X154305000Y-81102200D01*
X150418800Y-86156800D02*
X150418800Y-84785200D01*
X152323800Y-82880200D02*
X157784800Y-82880200D01*
X150418800Y-84785200D02*
X152323800Y-82880200D01*
X157784800Y-82880200D02*
X158292800Y-82372200D01*
X194487800Y-88468200D02*
X194487800Y-85293200D01*
X194487800Y-85293200D02*
X194818000Y-84963000D01*
X204851000Y-68808600D02*
X204851000Y-77952600D01*
X197840600Y-84963000D02*
X194818000Y-84963000D01*
X204851000Y-77952600D02*
X197840600Y-84963000D01*
X150495000Y-78360000D02*
X150495000Y-80391000D01*
X150495000Y-80391000D02*
X150850600Y-80746600D01*
X158115000Y-78360000D02*
X158571200Y-78360000D01*
X175260000Y-72009000D02*
X175260000Y-69850000D01*
X173278800Y-73990200D02*
X175260000Y-72009000D01*
X162941000Y-73990200D02*
X173278800Y-73990200D01*
X158571200Y-78360000D02*
X162941000Y-73990200D01*
X167640000Y-69850000D02*
X167640000Y-67513200D01*
X156845000Y-67310000D02*
X156845000Y-68960000D01*
X158013400Y-66141600D02*
X156845000Y-67310000D01*
X166268400Y-66141600D02*
X158013400Y-66141600D01*
X167640000Y-67513200D02*
X166268400Y-66141600D01*
X149225000Y-68960000D02*
X149225000Y-70027800D01*
X152044400Y-72847200D02*
X154051000Y-72847200D01*
X149225000Y-70027800D02*
X152044400Y-72847200D01*
X170053000Y-86741000D02*
X170053000Y-87452200D01*
X170053000Y-87452200D02*
X169062400Y-88442800D01*
X169062400Y-88442800D02*
X161467800Y-88442800D01*
X161467800Y-88442800D02*
X160858200Y-87833200D01*
X160858200Y-87833200D02*
X160858200Y-78257400D01*
X149250400Y-72898000D02*
X147955000Y-71602600D01*
X147955000Y-71602600D02*
X147955000Y-68960000D01*
X189966600Y-67462400D02*
X193014600Y-70510400D01*
X193014600Y-70510400D02*
X193014600Y-74752200D01*
X170180000Y-69850000D02*
X170180000Y-67843400D01*
X198323200Y-75996800D02*
X195529200Y-78790800D01*
X198323200Y-70662800D02*
X198323200Y-75996800D01*
X194411600Y-66751200D02*
X198323200Y-70662800D01*
X171272200Y-66751200D02*
X194411600Y-66751200D01*
X170180000Y-67843400D02*
X171272200Y-66751200D01*
X156845000Y-78360000D02*
X156845000Y-80010000D01*
X156387800Y-84988400D02*
X156387800Y-86614000D01*
X156870400Y-84505800D02*
X156387800Y-84988400D01*
X158750000Y-84505800D02*
X156870400Y-84505800D01*
X159918400Y-83337400D02*
X158750000Y-84505800D01*
X159918400Y-81026000D02*
X159918400Y-83337400D01*
X159359600Y-80467200D02*
X159918400Y-81026000D01*
X157302200Y-80467200D02*
X159359600Y-80467200D01*
X156845000Y-80010000D02*
X157302200Y-80467200D01*
M02*
