M48
;DRILL file {KiCad 4.0.2+dfsg1-stable} date Thu 01 Dec 2016 16:17:49 GMT
;FORMAT={-:-/ absolute / inch / decimal}
FMAT,2
INCH,TZ
T1C0.016
T2C0.031
T3C0.032
T4C0.039
T5C0.040
T6C0.050
%
G90
G05
M72
T1
X5.61Y-2.685
X5.876Y-2.87
X5.939Y-3.179
X6.065Y-2.868
X6.333Y-3.081
X7.479Y-2.656
X7.599Y-2.943
T2
X5.262Y-3.06
X5.61Y-2.838
X6.51Y-3.197
X6.6Y-2.75
X6.6Y-3.05
X6.675Y-3.234
X6.7Y-2.75
X6.7Y-3.05
X6.8Y-2.75
X6.8Y-3.05
X6.899Y-3.231
X6.9Y-2.75
X6.9Y-3.05
X7.Y-2.75
X7.Y-3.05
X7.1Y-2.75
X7.1Y-3.05
X7.2Y-2.75
X7.2Y-3.05
X7.224Y-3.238
X7.657Y-3.483
X7.865Y-2.709
X7.965Y-2.709
X8.065Y-2.709
T3
X5.3604Y-3.06
X5.61Y-2.9364
X6.51Y-3.2954
X6.7734Y-3.234
X6.9974Y-3.231
X7.1256Y-3.238
X7.7554Y-3.483
T4
X5.281Y-3.407
X5.282Y-3.269
X5.681Y-3.407
X5.682Y-3.269
X5.822Y-3.392
X5.832Y-3.243
X5.922Y-3.392
X6.232Y-3.243
X7.67Y-3.345
X8.07Y-3.345
T5
X6.057Y-3.41
X6.157Y-3.41
X6.257Y-3.41
X6.395Y-3.415
X6.495Y-3.415
X6.595Y-3.415
X6.695Y-3.415
X6.795Y-3.415
X7.698Y-2.902
X7.698Y-3.002
X7.698Y-3.102
X7.698Y-3.202
T6
X7.391Y-3.08
X7.521Y-2.88
X7.521Y-3.28
T0
M30
