G04 #@! TF.FileFunction,Copper,L2,Bot,Signal*
%FSLAX46Y46*%
G04 Gerber Fmt 4.6, Leading zero omitted, Abs format (unit mm)*
G04 Created by KiCad (PCBNEW 4.0.2+dfsg1-stable) date Thu 01 Dec 2016 16:17:54 GMT*
%MOMM*%
G01*
G04 APERTURE LIST*
%ADD10C,0.100000*%
%ADD11R,1.300000X1.300000*%
%ADD12C,1.300000*%
%ADD13C,1.998980*%
%ADD14O,1.600000X2.300000*%
%ADD15R,0.590000X0.450000*%
%ADD16R,1.727200X2.032000*%
%ADD17O,1.727200X2.032000*%
%ADD18R,2.032000X1.727200*%
%ADD19O,2.032000X1.727200*%
%ADD20C,2.286000*%
%ADD21R,2.000000X2.000000*%
%ADD22C,2.000000*%
%ADD23C,1.524000*%
%ADD24C,0.600000*%
%ADD25C,0.250000*%
G04 APERTURE END LIST*
D10*
D11*
X142494000Y-72085200D03*
D12*
X142494000Y-74585200D03*
D11*
X175234600Y-82067400D03*
D12*
X177734600Y-82067400D03*
D11*
X169545000Y-82143600D03*
D12*
X172045000Y-82143600D03*
D11*
X165354000Y-81203800D03*
D12*
X165354000Y-83703800D03*
D11*
X183489600Y-82245200D03*
D12*
X180989600Y-82245200D03*
D11*
X133654800Y-77724000D03*
D12*
X136154800Y-77724000D03*
D13*
X144297400Y-86537800D03*
X134137400Y-86537800D03*
X144322800Y-83032600D03*
X134162800Y-83032600D03*
X148132800Y-82372200D03*
X158292800Y-82372200D03*
X204978000Y-84963000D03*
X194818000Y-84963000D03*
D14*
X167640000Y-77470000D03*
X170180000Y-77470000D03*
X172720000Y-77470000D03*
X175260000Y-77470000D03*
X177800000Y-77470000D03*
X180340000Y-77470000D03*
X182880000Y-77470000D03*
X182880000Y-69850000D03*
X180340000Y-69850000D03*
X177800000Y-69850000D03*
X175260000Y-69850000D03*
X172720000Y-69850000D03*
X170180000Y-69850000D03*
X167640000Y-69850000D03*
D15*
X179462800Y-86614000D03*
X181572800Y-86614000D03*
D16*
X172593000Y-86741000D03*
D17*
X170053000Y-86741000D03*
X167513000Y-86741000D03*
X164973000Y-86741000D03*
X162433000Y-86741000D03*
D18*
X195529200Y-73710800D03*
D19*
X195529200Y-76250800D03*
X195529200Y-78790800D03*
X195529200Y-81330800D03*
D20*
X191033400Y-83312000D03*
X191033400Y-73152000D03*
X187731400Y-78232000D03*
D21*
X150418800Y-86156800D03*
D22*
X147878800Y-86156800D03*
D23*
X202311000Y-68808600D03*
X204851000Y-68808600D03*
X199771000Y-68808600D03*
D11*
X194487800Y-88468200D03*
D12*
X196987800Y-88468200D03*
D16*
X158927800Y-86614000D03*
D17*
X156387800Y-86614000D03*
X153847800Y-86614000D03*
D24*
X142494000Y-68199000D03*
X150850600Y-80746600D03*
X154051000Y-72847200D03*
X160858200Y-78257400D03*
X149250400Y-72898000D03*
X189966600Y-67462400D03*
X193014600Y-74752200D03*
D25*
X153847800Y-86614000D02*
X153847800Y-86588600D01*
X133654800Y-77724000D02*
X133654800Y-77470000D01*
X133654800Y-77470000D02*
X139039600Y-72085200D01*
X139039600Y-72085200D02*
X142494000Y-72085200D01*
X147878800Y-86156800D02*
X147878800Y-85039200D01*
X143992600Y-73583800D02*
X142494000Y-72085200D01*
X143992600Y-78689200D02*
X143992600Y-73583800D01*
X146050000Y-80746600D02*
X143992600Y-78689200D01*
X146050000Y-83210400D02*
X146050000Y-80746600D01*
X147878800Y-85039200D02*
X147040600Y-84201000D01*
X147040600Y-84201000D02*
X146050000Y-83210400D01*
X187731400Y-78232000D02*
X187731400Y-70891400D01*
X202311000Y-68021200D02*
X202311000Y-68808600D01*
X201345800Y-67056000D02*
X202311000Y-68021200D01*
X199466200Y-67056000D02*
X201345800Y-67056000D01*
X198399400Y-68122800D02*
X199466200Y-67056000D01*
X190500000Y-68122800D02*
X198399400Y-68122800D01*
X187731400Y-70891400D02*
X190500000Y-68122800D01*
X142494000Y-72085200D02*
X142494000Y-68199000D01*
X158927800Y-86614000D02*
X158927800Y-88290400D01*
X158927800Y-88290400D02*
X159156400Y-88519000D01*
X142494000Y-74585200D02*
X142494000Y-81203800D01*
X142494000Y-81203800D02*
X144322800Y-83032600D01*
X199771000Y-68808600D02*
X192074800Y-68808600D01*
X180682000Y-85394800D02*
X179462800Y-86614000D01*
X183870600Y-85394800D02*
X180682000Y-85394800D01*
X189839600Y-79425800D02*
X183870600Y-85394800D01*
X189839600Y-77901800D02*
X189839600Y-79425800D01*
X188976000Y-77038200D02*
X189839600Y-77901800D01*
X188976000Y-71907400D02*
X188976000Y-77038200D01*
X192074800Y-68808600D02*
X188976000Y-71907400D01*
X144297400Y-86537800D02*
X144297400Y-87985600D01*
X144830800Y-88519000D02*
X159156400Y-88519000D01*
X159156400Y-88519000D02*
X166751000Y-88519000D01*
X144297400Y-87985600D02*
X144830800Y-88519000D01*
X179462800Y-86614000D02*
X177876200Y-86614000D01*
X177876200Y-86614000D02*
X175971200Y-88519000D01*
X175971200Y-88519000D02*
X166751000Y-88519000D01*
X166751000Y-88519000D02*
X164973000Y-86741000D01*
X164973000Y-86741000D02*
X164973000Y-84084800D01*
X164973000Y-84084800D02*
X165354000Y-83703800D01*
X136154800Y-77724000D02*
X139355200Y-77724000D01*
X139355200Y-77724000D02*
X142494000Y-74585200D01*
X195529200Y-76250800D02*
X200380600Y-76250800D01*
X204978000Y-80848200D02*
X204978000Y-84963000D01*
X200380600Y-76250800D02*
X204978000Y-80848200D01*
X159816800Y-84124800D02*
X162433000Y-86741000D01*
X155600400Y-84124800D02*
X159816800Y-84124800D01*
X154279600Y-82804000D02*
X155600400Y-84124800D01*
X152908000Y-82804000D02*
X154279600Y-82804000D01*
X150850600Y-80746600D02*
X152908000Y-82804000D01*
X167513000Y-81102200D02*
X167513000Y-86741000D01*
X165963600Y-79552800D02*
X167513000Y-81102200D01*
X164084000Y-79552800D02*
X165963600Y-79552800D01*
X157429200Y-72898000D02*
X164084000Y-79552800D01*
X154101800Y-72898000D02*
X157429200Y-72898000D01*
X154051000Y-72847200D02*
X154101800Y-72898000D01*
X160858200Y-78257400D02*
X157556200Y-74955400D01*
X157556200Y-74955400D02*
X151307800Y-74955400D01*
X151307800Y-74955400D02*
X149250400Y-72898000D01*
X172720000Y-69850000D02*
X172720000Y-69392800D01*
X172720000Y-69392800D02*
X174650400Y-67462400D01*
X174650400Y-67462400D02*
X189966600Y-67462400D01*
X193014600Y-74752200D02*
X193192400Y-74930000D01*
X193192400Y-74930000D02*
X193192400Y-78994000D01*
X193192400Y-78994000D02*
X195529200Y-81330800D01*
X191033400Y-73152000D02*
X191033400Y-83312000D01*
X181572800Y-86614000D02*
X187731400Y-86614000D01*
X187731400Y-86614000D02*
X191033400Y-83312000D01*
M02*
