G04 #@! TF.FileFunction,Soldermask,Top*
%FSLAX46Y46*%
G04 Gerber Fmt 4.6, Leading zero omitted, Abs format (unit mm)*
G04 Created by KiCad (PCBNEW 4.0.2+dfsg1-stable) date Thu 01 Dec 2016 16:17:54 GMT*
%MOMM*%
G01*
G04 APERTURE LIST*
%ADD10C,0.100000*%
%ADD11C,0.001000*%
%ADD12C,0.381000*%
%ADD13R,1.700000X1.700000*%
%ADD14C,1.700000*%
%ADD15C,2.398980*%
%ADD16R,0.500000X1.000000*%
%ADD17R,1.400000X0.600000*%
%ADD18R,1.000000X2.350000*%
%ADD19O,2.000000X2.700000*%
%ADD20R,2.127200X2.432000*%
%ADD21O,2.127200X2.432000*%
%ADD22R,2.432000X2.127200*%
%ADD23O,2.432000X2.127200*%
%ADD24C,2.686000*%
%ADD25R,2.400000X2.400000*%
%ADD26C,2.400000*%
%ADD27C,1.924000*%
G04 APERTURE END LIST*
D10*
D11*
G36*
X133970000Y-73040000D02*
X133620000Y-72690000D01*
X133620000Y-71740000D01*
X135620000Y-71740000D01*
X135620000Y-73040000D01*
X133970000Y-73040000D01*
G37*
X133970000Y-73040000D02*
X133620000Y-72690000D01*
X133620000Y-71740000D01*
X135620000Y-71740000D01*
X135620000Y-73040000D01*
X133970000Y-73040000D01*
D12*
G36*
X133670000Y-74040000D02*
X133670000Y-73140000D01*
X134070000Y-73140000D01*
X134070000Y-74040000D01*
X133670000Y-74040000D01*
G37*
X133670000Y-74040000D02*
X133670000Y-73140000D01*
X134070000Y-73140000D01*
X134070000Y-74040000D01*
X133670000Y-74040000D01*
G36*
X134170000Y-74040000D02*
X134170000Y-73140000D01*
X134570000Y-73140000D01*
X134570000Y-74040000D01*
X134170000Y-74040000D01*
G37*
X134170000Y-74040000D02*
X134170000Y-73140000D01*
X134570000Y-73140000D01*
X134570000Y-74040000D01*
X134170000Y-74040000D01*
G36*
X134670000Y-74040000D02*
X134670000Y-73140000D01*
X135070000Y-73140000D01*
X135070000Y-74040000D01*
X134670000Y-74040000D01*
G37*
X134670000Y-74040000D02*
X134670000Y-73140000D01*
X135070000Y-73140000D01*
X135070000Y-74040000D01*
X134670000Y-74040000D01*
G36*
X135170000Y-74040000D02*
X135170000Y-73140000D01*
X135570000Y-73140000D01*
X135570000Y-74040000D01*
X135170000Y-74040000D01*
G37*
X135170000Y-74040000D02*
X135170000Y-73140000D01*
X135570000Y-73140000D01*
X135570000Y-74040000D01*
X135170000Y-74040000D01*
G36*
X133670000Y-71640000D02*
X133670000Y-70740000D01*
X134070000Y-70740000D01*
X134070000Y-71640000D01*
X133670000Y-71640000D01*
G37*
X133670000Y-71640000D02*
X133670000Y-70740000D01*
X134070000Y-70740000D01*
X134070000Y-71640000D01*
X133670000Y-71640000D01*
G36*
X134170000Y-71640000D02*
X134170000Y-70740000D01*
X134570000Y-70740000D01*
X134570000Y-71640000D01*
X134170000Y-71640000D01*
G37*
X134170000Y-71640000D02*
X134170000Y-70740000D01*
X134570000Y-70740000D01*
X134570000Y-71640000D01*
X134170000Y-71640000D01*
G36*
X134670000Y-71640000D02*
X134670000Y-70740000D01*
X135070000Y-70740000D01*
X135070000Y-71640000D01*
X134670000Y-71640000D01*
G37*
X134670000Y-71640000D02*
X134670000Y-70740000D01*
X135070000Y-70740000D01*
X135070000Y-71640000D01*
X134670000Y-71640000D01*
G36*
X135170000Y-71640000D02*
X135170000Y-70740000D01*
X135570000Y-70740000D01*
X135570000Y-71640000D01*
X135170000Y-71640000D01*
G37*
X135170000Y-71640000D02*
X135170000Y-70740000D01*
X135570000Y-70740000D01*
X135570000Y-71640000D01*
X135170000Y-71640000D01*
D13*
X142494000Y-72085200D03*
D14*
X142494000Y-74585200D03*
D13*
X175234600Y-82067400D03*
D14*
X177734600Y-82067400D03*
D13*
X169545000Y-82143600D03*
D14*
X172045000Y-82143600D03*
D13*
X165354000Y-81203800D03*
D14*
X165354000Y-83703800D03*
D13*
X183489600Y-82245200D03*
D14*
X180989600Y-82245200D03*
D13*
X133654800Y-77724000D03*
D14*
X136154800Y-77724000D03*
D15*
X144297400Y-86537800D03*
X134137400Y-86537800D03*
X144322800Y-83032600D03*
X134162800Y-83032600D03*
X148132800Y-82372200D03*
X158292800Y-82372200D03*
X204978000Y-84963000D03*
X194818000Y-84963000D03*
D16*
X133870000Y-73590000D03*
X134370000Y-73590000D03*
X134870000Y-73590000D03*
X135370000Y-73590000D03*
X135370000Y-71190000D03*
X134870000Y-71190000D03*
X134370000Y-71190000D03*
X133870000Y-71190000D03*
D17*
X134620000Y-72390000D03*
D18*
X146685000Y-78360000D03*
X147955000Y-78360000D03*
X149225000Y-78360000D03*
X150495000Y-78360000D03*
X151765000Y-78360000D03*
X153035000Y-78360000D03*
X154305000Y-78360000D03*
X155575000Y-78360000D03*
X156845000Y-78360000D03*
X158115000Y-78360000D03*
X158115000Y-68960000D03*
X156845000Y-68960000D03*
X155575000Y-68960000D03*
X154305000Y-68960000D03*
X153035000Y-68960000D03*
X151765000Y-68960000D03*
X150495000Y-68960000D03*
X149225000Y-68960000D03*
X147955000Y-68960000D03*
X146685000Y-68960000D03*
D19*
X167640000Y-77470000D03*
X170180000Y-77470000D03*
X172720000Y-77470000D03*
X175260000Y-77470000D03*
X177800000Y-77470000D03*
X180340000Y-77470000D03*
X182880000Y-77470000D03*
X182880000Y-69850000D03*
X180340000Y-69850000D03*
X177800000Y-69850000D03*
X175260000Y-69850000D03*
X172720000Y-69850000D03*
X170180000Y-69850000D03*
X167640000Y-69850000D03*
D20*
X172593000Y-86741000D03*
D21*
X170053000Y-86741000D03*
X167513000Y-86741000D03*
X164973000Y-86741000D03*
X162433000Y-86741000D03*
D22*
X195529200Y-73710800D03*
D23*
X195529200Y-76250800D03*
X195529200Y-78790800D03*
X195529200Y-81330800D03*
D24*
X191033400Y-83312000D03*
X191033400Y-73152000D03*
X187731400Y-78232000D03*
D25*
X150418800Y-86156800D03*
D26*
X147878800Y-86156800D03*
D27*
X202311000Y-68808600D03*
X204851000Y-68808600D03*
X199771000Y-68808600D03*
D13*
X194487800Y-88468200D03*
D14*
X196987800Y-88468200D03*
D20*
X158927800Y-86614000D03*
D21*
X156387800Y-86614000D03*
X153847800Y-86614000D03*
M02*
