G04 #@! TF.FileFunction,Legend,Top*
%FSLAX46Y46*%
G04 Gerber Fmt 4.6, Leading zero omitted, Abs format (unit mm)*
G04 Created by KiCad (PCBNEW 4.0.2+dfsg1-stable) date Thu 01 Dec 2016 16:17:54 GMT*
%MOMM*%
G01*
G04 APERTURE LIST*
%ADD10C,0.100000*%
%ADD11C,0.150000*%
%ADD12C,0.127000*%
%ADD13C,0.200000*%
%ADD14C,0.050000*%
G04 APERTURE END LIST*
D10*
D11*
X143744000Y-71835200D02*
X143744000Y-74835200D01*
X141244000Y-74835200D02*
X141244000Y-71835200D01*
X174984600Y-80817400D02*
X177984600Y-80817400D01*
X177984600Y-83317400D02*
X174984600Y-83317400D01*
X169295000Y-80893600D02*
X172295000Y-80893600D01*
X172295000Y-83393600D02*
X169295000Y-83393600D01*
X166604000Y-80953800D02*
X166604000Y-83953800D01*
X164104000Y-83953800D02*
X164104000Y-80953800D01*
X183739600Y-83495200D02*
X180739600Y-83495200D01*
X180739600Y-80995200D02*
X183739600Y-80995200D01*
X133404800Y-76474000D02*
X136404800Y-76474000D01*
X136404800Y-78974000D02*
X133404800Y-78974000D01*
X141757400Y-87807800D02*
X136677400Y-87807800D01*
X136677400Y-87807800D02*
X136677400Y-85267800D01*
X136677400Y-85267800D02*
X141757400Y-85267800D01*
X141757400Y-85267800D02*
X141757400Y-87807800D01*
X141757400Y-86537800D02*
X143027400Y-86537800D01*
X136677400Y-86537800D02*
X135407400Y-86537800D01*
X141782800Y-84302600D02*
X136702800Y-84302600D01*
X136702800Y-84302600D02*
X136702800Y-81762600D01*
X136702800Y-81762600D02*
X141782800Y-81762600D01*
X141782800Y-81762600D02*
X141782800Y-84302600D01*
X141782800Y-83032600D02*
X143052800Y-83032600D01*
X136702800Y-83032600D02*
X135432800Y-83032600D01*
X150672800Y-81102200D02*
X155752800Y-81102200D01*
X155752800Y-81102200D02*
X155752800Y-83642200D01*
X155752800Y-83642200D02*
X150672800Y-83642200D01*
X150672800Y-83642200D02*
X150672800Y-81102200D01*
X150672800Y-82372200D02*
X149402800Y-82372200D01*
X155752800Y-82372200D02*
X157022800Y-82372200D01*
X202438000Y-86233000D02*
X197358000Y-86233000D01*
X197358000Y-86233000D02*
X197358000Y-83693000D01*
X197358000Y-83693000D02*
X202438000Y-83693000D01*
X202438000Y-83693000D02*
X202438000Y-86233000D01*
X202438000Y-84963000D02*
X203708000Y-84963000D01*
X197358000Y-84963000D02*
X196088000Y-84963000D01*
D12*
X133370000Y-73640000D02*
X133370000Y-71140000D01*
X135870000Y-73640000D02*
X135870000Y-71140000D01*
D13*
X133940000Y-74490000D02*
G75*
G03X133940000Y-74490000I-120000J0D01*
G01*
D11*
X145825000Y-77535000D02*
X146160000Y-77535000D01*
X145825000Y-69785000D02*
X146160000Y-69785000D01*
X158975000Y-69785000D02*
X158640000Y-69785000D01*
X158975000Y-77535000D02*
X158640000Y-77535000D01*
X145825000Y-77535000D02*
X145825000Y-69785000D01*
X158975000Y-77535000D02*
X158975000Y-69785000D01*
X146160000Y-77535000D02*
X146160000Y-79335000D01*
X165345000Y-77335000D02*
X166615000Y-77335000D01*
X165345000Y-69985000D02*
X166615000Y-69985000D01*
X185175000Y-69985000D02*
X183905000Y-69985000D01*
X185175000Y-77335000D02*
X183905000Y-77335000D01*
X165345000Y-77335000D02*
X165345000Y-69985000D01*
X185175000Y-77335000D02*
X185175000Y-69985000D01*
X166615000Y-77335000D02*
X166615000Y-78620000D01*
X172593000Y-85191000D02*
X174143000Y-85191000D01*
X174143000Y-85191000D02*
X174143000Y-88291000D01*
X174143000Y-88291000D02*
X172593000Y-88291000D01*
X171323000Y-88011000D02*
X161163000Y-88011000D01*
X161163000Y-88011000D02*
X161163000Y-85471000D01*
X161163000Y-85471000D02*
X171323000Y-85471000D01*
X171323000Y-88011000D02*
X171323000Y-85471000D01*
X194229200Y-72160800D02*
X194229200Y-73710800D01*
X195529200Y-72160800D02*
X194229200Y-72160800D01*
X199720200Y-73583800D02*
X205562200Y-73583800D01*
X205562200Y-73583800D02*
X205562200Y-73837800D01*
X205562200Y-73837800D02*
X199720200Y-73837800D01*
X199720200Y-73837800D02*
X199720200Y-73710800D01*
X199720200Y-73710800D02*
X205562200Y-73710800D01*
X197053200Y-73456800D02*
X196672200Y-73456800D01*
X197053200Y-73964800D02*
X196672200Y-73964800D01*
X197053200Y-75996800D02*
X196672200Y-75996800D01*
X197053200Y-76504800D02*
X196672200Y-76504800D01*
X197053200Y-78536800D02*
X196672200Y-78536800D01*
X197053200Y-79044800D02*
X196672200Y-79044800D01*
X197053200Y-81584800D02*
X196672200Y-81584800D01*
X197053200Y-81076800D02*
X196672200Y-81076800D01*
X197053200Y-72440800D02*
X199593200Y-72440800D01*
X197053200Y-74980800D02*
X199593200Y-74980800D01*
X197053200Y-74980800D02*
X197053200Y-77520800D01*
X197053200Y-77520800D02*
X199593200Y-77520800D01*
X199593200Y-75996800D02*
X205689200Y-75996800D01*
X205689200Y-75996800D02*
X205689200Y-76504800D01*
X205689200Y-76504800D02*
X199593200Y-76504800D01*
X199593200Y-77520800D02*
X199593200Y-74980800D01*
X199593200Y-74980800D02*
X199593200Y-72440800D01*
X205689200Y-73964800D02*
X199593200Y-73964800D01*
X205689200Y-73456800D02*
X205689200Y-73964800D01*
X199593200Y-73456800D02*
X205689200Y-73456800D01*
X197053200Y-74980800D02*
X199593200Y-74980800D01*
X197053200Y-72440800D02*
X197053200Y-74980800D01*
X197053200Y-80060800D02*
X199593200Y-80060800D01*
X197053200Y-80060800D02*
X197053200Y-82600800D01*
X197053200Y-82600800D02*
X199593200Y-82600800D01*
X199593200Y-81076800D02*
X205689200Y-81076800D01*
X205689200Y-81076800D02*
X205689200Y-81584800D01*
X205689200Y-81584800D02*
X199593200Y-81584800D01*
X199593200Y-82600800D02*
X199593200Y-80060800D01*
X199593200Y-80060800D02*
X199593200Y-77520800D01*
X205689200Y-79044800D02*
X199593200Y-79044800D01*
X205689200Y-78536800D02*
X205689200Y-79044800D01*
X199593200Y-78536800D02*
X205689200Y-78536800D01*
X197053200Y-80060800D02*
X199593200Y-80060800D01*
X197053200Y-77520800D02*
X197053200Y-80060800D01*
X197053200Y-77520800D02*
X199593200Y-77520800D01*
X185953400Y-90297000D02*
X185953400Y-66167000D01*
X187477400Y-76454000D02*
X187477400Y-75438000D01*
X191541400Y-70358000D02*
X190525400Y-70358000D01*
X191033400Y-70866000D02*
X191033400Y-69850000D01*
X192430400Y-66167000D02*
X186080400Y-66167000D01*
X186588400Y-66167000D02*
X186588400Y-90297000D01*
X186080400Y-90297000D02*
X192430400Y-90297000D01*
X192430400Y-90297000D02*
X192430400Y-66167000D01*
X150617800Y-84842800D02*
X150617800Y-85042800D01*
X150617800Y-87436800D02*
X150617800Y-87256800D01*
X147390056Y-87126443D02*
G75*
G03X150617800Y-87442800I1727744J1003643D01*
G01*
X148065794Y-87255868D02*
G75*
G03X150168800Y-87256800I1052006J1133068D01*
G01*
X150605020Y-84816074D02*
G75*
G03X147367800Y-85162800I-1497220J-1306726D01*
G01*
X150131689Y-85043547D02*
G75*
G03X148083800Y-85062800I-1013889J-1079253D01*
G01*
X200123305Y-69805590D02*
G75*
G03X200611000Y-70508600I2187695J996990D01*
G01*
X204498695Y-69805590D02*
G75*
G02X204011000Y-70508600I-2187695J996990D01*
G01*
X200611000Y-70508600D02*
X204011000Y-70508600D01*
X200126121Y-67815473D02*
G75*
G02X202311000Y-66408600I2184879J-993127D01*
G01*
X204495879Y-67815473D02*
G75*
G03X202311000Y-66408600I-2184879J-993127D01*
G01*
X194237800Y-87218200D02*
X197237800Y-87218200D01*
X197237800Y-89718200D02*
X194237800Y-89718200D01*
X157657800Y-85344000D02*
X152577800Y-85344000D01*
X152577800Y-85344000D02*
X152577800Y-87884000D01*
X152577800Y-87884000D02*
X157657800Y-87884000D01*
X160477800Y-88164000D02*
X158927800Y-88164000D01*
X157657800Y-87884000D02*
X157657800Y-85344000D01*
X158927800Y-85064000D02*
X160477800Y-85064000D01*
X160477800Y-85064000D02*
X160477800Y-88164000D01*
X145351143Y-73501866D02*
X145398762Y-73549485D01*
X145446381Y-73692342D01*
X145446381Y-73787580D01*
X145398762Y-73930438D01*
X145303524Y-74025676D01*
X145208286Y-74073295D01*
X145017810Y-74120914D01*
X144874952Y-74120914D01*
X144684476Y-74073295D01*
X144589238Y-74025676D01*
X144494000Y-73930438D01*
X144446381Y-73787580D01*
X144446381Y-73692342D01*
X144494000Y-73549485D01*
X144541619Y-73501866D01*
X145446381Y-72549485D02*
X145446381Y-73120914D01*
X145446381Y-72835200D02*
X144446381Y-72835200D01*
X144589238Y-72930438D01*
X144684476Y-73025676D01*
X144732095Y-73120914D01*
X176317934Y-79924543D02*
X176270315Y-79972162D01*
X176127458Y-80019781D01*
X176032220Y-80019781D01*
X175889362Y-79972162D01*
X175794124Y-79876924D01*
X175746505Y-79781686D01*
X175698886Y-79591210D01*
X175698886Y-79448352D01*
X175746505Y-79257876D01*
X175794124Y-79162638D01*
X175889362Y-79067400D01*
X176032220Y-79019781D01*
X176127458Y-79019781D01*
X176270315Y-79067400D01*
X176317934Y-79115019D01*
X176698886Y-79115019D02*
X176746505Y-79067400D01*
X176841743Y-79019781D01*
X177079839Y-79019781D01*
X177175077Y-79067400D01*
X177222696Y-79115019D01*
X177270315Y-79210257D01*
X177270315Y-79305495D01*
X177222696Y-79448352D01*
X176651267Y-80019781D01*
X177270315Y-80019781D01*
X170628334Y-80000743D02*
X170580715Y-80048362D01*
X170437858Y-80095981D01*
X170342620Y-80095981D01*
X170199762Y-80048362D01*
X170104524Y-79953124D01*
X170056905Y-79857886D01*
X170009286Y-79667410D01*
X170009286Y-79524552D01*
X170056905Y-79334076D01*
X170104524Y-79238838D01*
X170199762Y-79143600D01*
X170342620Y-79095981D01*
X170437858Y-79095981D01*
X170580715Y-79143600D01*
X170628334Y-79191219D01*
X170961667Y-79095981D02*
X171580715Y-79095981D01*
X171247381Y-79476933D01*
X171390239Y-79476933D01*
X171485477Y-79524552D01*
X171533096Y-79572171D01*
X171580715Y-79667410D01*
X171580715Y-79905505D01*
X171533096Y-80000743D01*
X171485477Y-80048362D01*
X171390239Y-80095981D01*
X171104524Y-80095981D01*
X171009286Y-80048362D01*
X170961667Y-80000743D01*
X168211143Y-82620466D02*
X168258762Y-82668085D01*
X168306381Y-82810942D01*
X168306381Y-82906180D01*
X168258762Y-83049038D01*
X168163524Y-83144276D01*
X168068286Y-83191895D01*
X167877810Y-83239514D01*
X167734952Y-83239514D01*
X167544476Y-83191895D01*
X167449238Y-83144276D01*
X167354000Y-83049038D01*
X167306381Y-82906180D01*
X167306381Y-82810942D01*
X167354000Y-82668085D01*
X167401619Y-82620466D01*
X167306381Y-81715704D02*
X167306381Y-82191895D01*
X167782571Y-82239514D01*
X167734952Y-82191895D01*
X167687333Y-82096657D01*
X167687333Y-81858561D01*
X167734952Y-81763323D01*
X167782571Y-81715704D01*
X167877810Y-81668085D01*
X168115905Y-81668085D01*
X168211143Y-81715704D01*
X168258762Y-81763323D01*
X168306381Y-81858561D01*
X168306381Y-82096657D01*
X168258762Y-82191895D01*
X168211143Y-82239514D01*
X182072934Y-85102343D02*
X182025315Y-85149962D01*
X181882458Y-85197581D01*
X181787220Y-85197581D01*
X181644362Y-85149962D01*
X181549124Y-85054724D01*
X181501505Y-84959486D01*
X181453886Y-84769010D01*
X181453886Y-84626152D01*
X181501505Y-84435676D01*
X181549124Y-84340438D01*
X181644362Y-84245200D01*
X181787220Y-84197581D01*
X181882458Y-84197581D01*
X182025315Y-84245200D01*
X182072934Y-84292819D01*
X182930077Y-84197581D02*
X182739600Y-84197581D01*
X182644362Y-84245200D01*
X182596743Y-84292819D01*
X182501505Y-84435676D01*
X182453886Y-84626152D01*
X182453886Y-85007105D01*
X182501505Y-85102343D01*
X182549124Y-85149962D01*
X182644362Y-85197581D01*
X182834839Y-85197581D01*
X182930077Y-85149962D01*
X182977696Y-85102343D01*
X183025315Y-85007105D01*
X183025315Y-84769010D01*
X182977696Y-84673771D01*
X182930077Y-84626152D01*
X182834839Y-84578533D01*
X182644362Y-84578533D01*
X182549124Y-84626152D01*
X182501505Y-84673771D01*
X182453886Y-84769010D01*
X134738134Y-75581143D02*
X134690515Y-75628762D01*
X134547658Y-75676381D01*
X134452420Y-75676381D01*
X134309562Y-75628762D01*
X134214324Y-75533524D01*
X134166705Y-75438286D01*
X134119086Y-75247810D01*
X134119086Y-75104952D01*
X134166705Y-74914476D01*
X134214324Y-74819238D01*
X134309562Y-74724000D01*
X134452420Y-74676381D01*
X134547658Y-74676381D01*
X134690515Y-74724000D01*
X134738134Y-74771619D01*
X135071467Y-74676381D02*
X135738134Y-74676381D01*
X135309562Y-75676381D01*
X138801814Y-90490301D02*
X138468480Y-90014110D01*
X138230385Y-90490301D02*
X138230385Y-89490301D01*
X138611338Y-89490301D01*
X138706576Y-89537920D01*
X138754195Y-89585539D01*
X138801814Y-89680777D01*
X138801814Y-89823634D01*
X138754195Y-89918872D01*
X138706576Y-89966491D01*
X138611338Y-90014110D01*
X138230385Y-90014110D01*
X139754195Y-90490301D02*
X139182766Y-90490301D01*
X139468480Y-90490301D02*
X139468480Y-89490301D01*
X139373242Y-89633158D01*
X139278004Y-89728396D01*
X139182766Y-89776015D01*
X138827214Y-86985101D02*
X138493880Y-86508910D01*
X138255785Y-86985101D02*
X138255785Y-85985101D01*
X138636738Y-85985101D01*
X138731976Y-86032720D01*
X138779595Y-86080339D01*
X138827214Y-86175577D01*
X138827214Y-86318434D01*
X138779595Y-86413672D01*
X138731976Y-86461291D01*
X138636738Y-86508910D01*
X138255785Y-86508910D01*
X139208166Y-86080339D02*
X139255785Y-86032720D01*
X139351023Y-85985101D01*
X139589119Y-85985101D01*
X139684357Y-86032720D01*
X139731976Y-86080339D01*
X139779595Y-86175577D01*
X139779595Y-86270815D01*
X139731976Y-86413672D01*
X139160547Y-86985101D01*
X139779595Y-86985101D01*
X153295054Y-79324461D02*
X152961720Y-78848270D01*
X152723625Y-79324461D02*
X152723625Y-78324461D01*
X153104578Y-78324461D01*
X153199816Y-78372080D01*
X153247435Y-78419699D01*
X153295054Y-78514937D01*
X153295054Y-78657794D01*
X153247435Y-78753032D01*
X153199816Y-78800651D01*
X153104578Y-78848270D01*
X152723625Y-78848270D01*
X153628387Y-78324461D02*
X154247435Y-78324461D01*
X153914101Y-78705413D01*
X154056959Y-78705413D01*
X154152197Y-78753032D01*
X154199816Y-78800651D01*
X154247435Y-78895890D01*
X154247435Y-79133985D01*
X154199816Y-79229223D01*
X154152197Y-79276842D01*
X154056959Y-79324461D01*
X153771244Y-79324461D01*
X153676006Y-79276842D01*
X153628387Y-79229223D01*
X199482414Y-88915501D02*
X199149080Y-88439310D01*
X198910985Y-88915501D02*
X198910985Y-87915501D01*
X199291938Y-87915501D01*
X199387176Y-87963120D01*
X199434795Y-88010739D01*
X199482414Y-88105977D01*
X199482414Y-88248834D01*
X199434795Y-88344072D01*
X199387176Y-88391691D01*
X199291938Y-88439310D01*
X198910985Y-88439310D01*
X200339557Y-88248834D02*
X200339557Y-88915501D01*
X200101461Y-87867882D02*
X199863366Y-88582168D01*
X200482414Y-88582168D01*
D14*
X132273905Y-72267524D02*
X132921524Y-72267524D01*
X132997714Y-72229429D01*
X133035810Y-72191333D01*
X133073905Y-72115143D01*
X133073905Y-71962762D01*
X133035810Y-71886571D01*
X132997714Y-71848476D01*
X132921524Y-71810381D01*
X132273905Y-71810381D01*
X133073905Y-71010381D02*
X133073905Y-71467524D01*
X133073905Y-71238953D02*
X132273905Y-71238953D01*
X132388190Y-71315143D01*
X132464381Y-71391334D01*
X132502476Y-71467524D01*
X136935810Y-75226190D02*
X136973905Y-75111904D01*
X136973905Y-74921428D01*
X136935810Y-74845238D01*
X136897714Y-74807142D01*
X136821524Y-74769047D01*
X136745333Y-74769047D01*
X136669143Y-74807142D01*
X136631048Y-74845238D01*
X136592952Y-74921428D01*
X136554857Y-75073809D01*
X136516762Y-75150000D01*
X136478667Y-75188095D01*
X136402476Y-75226190D01*
X136326286Y-75226190D01*
X136250095Y-75188095D01*
X136212000Y-75150000D01*
X136173905Y-75073809D01*
X136173905Y-74883333D01*
X136212000Y-74769047D01*
X136973905Y-74426190D02*
X136173905Y-74426190D01*
X136554857Y-74426190D02*
X136554857Y-73969047D01*
X136973905Y-73969047D02*
X136173905Y-73969047D01*
X136173905Y-73702381D02*
X136173905Y-73245238D01*
X136973905Y-73473809D02*
X136173905Y-73473809D01*
X136173905Y-73054761D02*
X136173905Y-72559523D01*
X136478667Y-72826190D01*
X136478667Y-72711904D01*
X136516762Y-72635714D01*
X136554857Y-72597618D01*
X136631048Y-72559523D01*
X136821524Y-72559523D01*
X136897714Y-72597618D01*
X136935810Y-72635714D01*
X136973905Y-72711904D01*
X136973905Y-72940476D01*
X136935810Y-73016666D01*
X136897714Y-73054761D01*
X136973905Y-71797618D02*
X136973905Y-72254761D01*
X136973905Y-72026190D02*
X136173905Y-72026190D01*
X136288190Y-72102380D01*
X136364381Y-72178571D01*
X136402476Y-72254761D01*
X136669143Y-71454761D02*
X136669143Y-70845237D01*
X136973905Y-70464285D02*
X136173905Y-70464285D01*
X136173905Y-70273809D01*
X136212000Y-70159523D01*
X136288190Y-70083332D01*
X136364381Y-70045237D01*
X136516762Y-70007142D01*
X136631048Y-70007142D01*
X136783429Y-70045237D01*
X136859619Y-70083332D01*
X136935810Y-70159523D01*
X136973905Y-70273809D01*
X136973905Y-70464285D01*
X136973905Y-69664285D02*
X136173905Y-69664285D01*
X136935810Y-69321428D02*
X136973905Y-69207142D01*
X136973905Y-69016666D01*
X136935810Y-68940476D01*
X136897714Y-68902380D01*
X136821524Y-68864285D01*
X136745333Y-68864285D01*
X136669143Y-68902380D01*
X136631048Y-68940476D01*
X136592952Y-69016666D01*
X136554857Y-69169047D01*
X136516762Y-69245238D01*
X136478667Y-69283333D01*
X136402476Y-69321428D01*
X136326286Y-69321428D01*
X136250095Y-69283333D01*
X136212000Y-69245238D01*
X136173905Y-69169047D01*
X136173905Y-68978571D01*
X136212000Y-68864285D01*
X136669143Y-68521428D02*
X136669143Y-67911904D01*
X136554857Y-67264285D02*
X136592952Y-67149999D01*
X136631048Y-67111904D01*
X136707238Y-67073809D01*
X136821524Y-67073809D01*
X136897714Y-67111904D01*
X136935810Y-67149999D01*
X136973905Y-67226190D01*
X136973905Y-67530952D01*
X136173905Y-67530952D01*
X136173905Y-67264285D01*
X136212000Y-67188095D01*
X136250095Y-67149999D01*
X136326286Y-67111904D01*
X136402476Y-67111904D01*
X136478667Y-67149999D01*
X136516762Y-67188095D01*
X136554857Y-67264285D01*
X136554857Y-67530952D01*
D11*
X144352381Y-74421905D02*
X145161905Y-74421905D01*
X145257143Y-74374286D01*
X145304762Y-74326667D01*
X145352381Y-74231429D01*
X145352381Y-74040952D01*
X145304762Y-73945714D01*
X145257143Y-73898095D01*
X145161905Y-73850476D01*
X144352381Y-73850476D01*
X144447619Y-73421905D02*
X144400000Y-73374286D01*
X144352381Y-73279048D01*
X144352381Y-73040952D01*
X144400000Y-72945714D01*
X144447619Y-72898095D01*
X144542857Y-72850476D01*
X144638095Y-72850476D01*
X144780952Y-72898095D01*
X145352381Y-73469524D01*
X145352381Y-72850476D01*
X161872381Y-78231905D02*
X162681905Y-78231905D01*
X162777143Y-78184286D01*
X162824762Y-78136667D01*
X162872381Y-78041429D01*
X162872381Y-77850952D01*
X162824762Y-77755714D01*
X162777143Y-77708095D01*
X162681905Y-77660476D01*
X161872381Y-77660476D01*
X162205714Y-76755714D02*
X162872381Y-76755714D01*
X161824762Y-76993810D02*
X162539048Y-77231905D01*
X162539048Y-76612857D01*
X178145381Y-87479095D02*
X177145381Y-87479095D01*
X177145381Y-87098142D01*
X177193000Y-87002904D01*
X177240619Y-86955285D01*
X177335857Y-86907666D01*
X177478714Y-86907666D01*
X177573952Y-86955285D01*
X177621571Y-87002904D01*
X177669190Y-87098142D01*
X177669190Y-87479095D01*
X178145381Y-85955285D02*
X178145381Y-86526714D01*
X178145381Y-86241000D02*
X177145381Y-86241000D01*
X177288238Y-86336238D01*
X177383476Y-86431476D01*
X177431095Y-86526714D01*
X194791105Y-69063181D02*
X194791105Y-68063181D01*
X195172058Y-68063181D01*
X195267296Y-68110800D01*
X195314915Y-68158419D01*
X195362534Y-68253657D01*
X195362534Y-68396514D01*
X195314915Y-68491752D01*
X195267296Y-68539371D01*
X195172058Y-68586990D01*
X194791105Y-68586990D01*
X195743486Y-68158419D02*
X195791105Y-68110800D01*
X195886343Y-68063181D01*
X196124439Y-68063181D01*
X196219677Y-68110800D01*
X196267296Y-68158419D01*
X196314915Y-68253657D01*
X196314915Y-68348895D01*
X196267296Y-68491752D01*
X195695867Y-69063181D01*
X196314915Y-69063181D01*
X184103971Y-86637714D02*
X184151590Y-86494857D01*
X184199210Y-86447238D01*
X184294448Y-86399619D01*
X184437305Y-86399619D01*
X184532543Y-86447238D01*
X184580162Y-86494857D01*
X184627781Y-86590095D01*
X184627781Y-86971048D01*
X183627781Y-86971048D01*
X183627781Y-86637714D01*
X183675400Y-86542476D01*
X183723019Y-86494857D01*
X183818257Y-86447238D01*
X183913495Y-86447238D01*
X184008733Y-86494857D01*
X184056352Y-86542476D01*
X184103971Y-86637714D01*
X184103971Y-86971048D01*
X183627781Y-86113905D02*
X183627781Y-85542476D01*
X184627781Y-85828191D02*
X183627781Y-85828191D01*
X184627781Y-84685333D02*
X184627781Y-85256762D01*
X184627781Y-84971048D02*
X183627781Y-84971048D01*
X183770638Y-85066286D01*
X183865876Y-85161524D01*
X183913495Y-85256762D01*
X147770705Y-83549181D02*
X147770705Y-82549181D01*
X148008800Y-82549181D01*
X148151658Y-82596800D01*
X148246896Y-82692038D01*
X148294515Y-82787276D01*
X148342134Y-82977752D01*
X148342134Y-83120610D01*
X148294515Y-83311086D01*
X148246896Y-83406324D01*
X148151658Y-83501562D01*
X148008800Y-83549181D01*
X147770705Y-83549181D01*
X149294515Y-83549181D02*
X148723086Y-83549181D01*
X149008800Y-83549181D02*
X149008800Y-82549181D01*
X148913562Y-82692038D01*
X148818324Y-82787276D01*
X148723086Y-82834895D01*
X151846895Y-84869181D02*
X151846895Y-83869181D01*
X152418324Y-84869181D02*
X151989752Y-84297752D01*
X152418324Y-83869181D02*
X151846895Y-84440610D01*
X199009095Y-64260981D02*
X199009095Y-65070505D01*
X199056714Y-65165743D01*
X199104333Y-65213362D01*
X199199571Y-65260981D01*
X199390048Y-65260981D01*
X199485286Y-65213362D01*
X199532905Y-65165743D01*
X199580524Y-65070505D01*
X199580524Y-64260981D01*
X199961476Y-64260981D02*
X200580524Y-64260981D01*
X200247190Y-64641933D01*
X200390048Y-64641933D01*
X200485286Y-64689552D01*
X200532905Y-64737171D01*
X200580524Y-64832410D01*
X200580524Y-65070505D01*
X200532905Y-65165743D01*
X200485286Y-65213362D01*
X200390048Y-65260981D01*
X200104333Y-65260981D01*
X200009095Y-65213362D01*
X199961476Y-65165743D01*
X195571134Y-86325343D02*
X195523515Y-86372962D01*
X195380658Y-86420581D01*
X195285420Y-86420581D01*
X195142562Y-86372962D01*
X195047324Y-86277724D01*
X194999705Y-86182486D01*
X194952086Y-85992010D01*
X194952086Y-85849152D01*
X194999705Y-85658676D01*
X195047324Y-85563438D01*
X195142562Y-85468200D01*
X195285420Y-85420581D01*
X195380658Y-85420581D01*
X195523515Y-85468200D01*
X195571134Y-85515819D01*
X196428277Y-85753914D02*
X196428277Y-86420581D01*
X196190181Y-85372962D02*
X195952086Y-86087248D01*
X196571134Y-86087248D01*
X164480181Y-87352095D02*
X163480181Y-87352095D01*
X163480181Y-86971142D01*
X163527800Y-86875904D01*
X163575419Y-86828285D01*
X163670657Y-86780666D01*
X163813514Y-86780666D01*
X163908752Y-86828285D01*
X163956371Y-86875904D01*
X164003990Y-86971142D01*
X164003990Y-87352095D01*
X163480181Y-86447333D02*
X163480181Y-85828285D01*
X163861133Y-86161619D01*
X163861133Y-86018761D01*
X163908752Y-85923523D01*
X163956371Y-85875904D01*
X164051610Y-85828285D01*
X164289705Y-85828285D01*
X164384943Y-85875904D01*
X164432562Y-85923523D01*
X164480181Y-86018761D01*
X164480181Y-86304476D01*
X164432562Y-86399714D01*
X164384943Y-86447333D01*
M02*
